<svg xmlns="http://www.w3.org/2000/svg" viewBox="0 0 1600 1100" width="1600" height="1100">
  <defs>
    <linearGradient id="bg" x1="0" y1="0" x2="1" y2="1">
      <stop offset="0" stop-color="#f8fafc"/>
      <stop offset="0.52" stop-color="#eef4ff"/>
      <stop offset="1" stop-color="#f7f2ff"/>
    </linearGradient>
    <linearGradient id="brand" x1="0" y1="0" x2="1" y2="1">
      <stop offset="0" stop-color="#4f46e5"/>
      <stop offset="0.55" stop-color="#7c3aed"/>
      <stop offset="1" stop-color="#06b6d4"/>
    </linearGradient>
    <linearGradient id="dark" x1="0" y1="0" x2="1" y2="1">
      <stop offset="0" stop-color="#121826"/>
      <stop offset="1" stop-color="#0b1020"/>
    </linearGradient>
    <linearGradient id="cardGlow" x1="0" y1="0" x2="1" y2="1">
      <stop offset="0" stop-color="#ffffff" stop-opacity="0.96"/>
      <stop offset="1" stop-color="#f8fbff" stop-opacity="0.90"/>
    </linearGradient>
    <filter id="shadow" x="-20%" y="-20%" width="140%" height="140%">
      <feDropShadow dx="0" dy="26" stdDeviation="32" flood-color="#334155" flood-opacity="0.18"/>
    </filter>
    <filter id="softShadow" x="-20%" y="-20%" width="140%" height="140%">
      <feDropShadow dx="0" dy="14" stdDeviation="18" flood-color="#334155" flood-opacity="0.13"/>
    </filter>
    <style>
      .title{font:800 58px Inter,Segoe UI,Arial,sans-serif;fill:#111827;letter-spacing:0}
      .sub{font:500 22px Inter,Segoe UI,Arial,sans-serif;fill:#64748b;letter-spacing:0}
      .label{font:700 13px Inter,Segoe UI,Arial,sans-serif;fill:#94a3b8;letter-spacing:.06em}
      .h1{font:800 25px Inter,Segoe UI,Arial,sans-serif;fill:#0f172a;letter-spacing:0}
      .h2{font:800 17px Inter,Segoe UI,Arial,sans-serif;fill:#0f172a;letter-spacing:0}
      .body{font:500 14px Inter,Segoe UI,Arial,sans-serif;fill:#64748b;letter-spacing:0}
      .small{font:600 12px Inter,Segoe UI,Arial,sans-serif;fill:#64748b;letter-spacing:0}
      .tiny{font:700 10px Inter,Segoe UI,Arial,sans-serif;fill:#94a3b8;letter-spacing:.05em}
      .num{font:850 30px Inter,Segoe UI,Arial,sans-serif;fill:#111827;letter-spacing:0}
      .white{fill:#ffffff}
      .muted{fill:#94a3b8}
      .line{stroke:#e2e8f0;stroke-width:1}
    </style>
  </defs>

  <rect width="1600" height="1100" fill="url(#bg)"/>

  <g transform="translate(86 72)">
    <rect x="0" y="0" width="64" height="64" rx="18" fill="url(#brand)" filter="url(#softShadow)"/>
    <rect x="17" y="17" width="30" height="8" rx="4" fill="#fff"/>
    <rect x="28" y="17" width="8" height="31" rx="4" fill="#fff"/>
    <circle cx="47" cy="46" r="8" fill="#0ea5e9"/>
    <path d="M47 42v5l4 2" fill="none" stroke="#fff" stroke-width="2.2" stroke-linecap="round"/>
    <text x="84" y="28" class="title">TIMES INC</text>
    <text x="87" y="61" class="sub">Concepto visual SaaS empresarial para control horario, documentos, PWA y auditoria.</text>
  </g>

  <!-- Desktop admin app -->
  <g transform="translate(86 190)" filter="url(#shadow)">
    <rect x="0" y="0" width="1010" height="720" rx="34" fill="#ffffff"/>
    <rect x="0" y="0" width="230" height="720" rx="34" fill="#0f172a"/>
    <path d="M230 0h10v720h-10z" fill="#0f172a"/>
    <g transform="translate(26 28)">
      <rect x="0" y="0" width="42" height="42" rx="12" fill="url(#brand)"/>
      <rect x="11" y="12" width="20" height="5" rx="2.5" fill="#fff"/>
      <rect x="18.5" y="12" width="5" height="20" rx="2.5" fill="#fff"/>
      <text x="54" y="27" font-family="Inter,Segoe UI,Arial" font-size="18" font-weight="800" fill="#fff">TIMES</text>
      <text x="54" y="44" font-family="Inter,Segoe UI,Arial" font-size="11" font-weight="700" fill="#93c5fd">Control inteligente</text>
    </g>
    <g transform="translate(24 112)">
      <text x="0" y="0" class="tiny">MENU PRINCIPAL</text>
      <g transform="translate(0 24)">
        <rect x="0" y="0" width="180" height="42" rx="12" fill="#1e293b"/>
        <circle cx="22" cy="21" r="7" fill="#60a5fa"/>
        <text x="42" y="26" font-family="Inter,Segoe UI,Arial" font-size="13" font-weight="800" fill="#fff">Dashboard</text>
      </g>
      <g transform="translate(0 78)">
        <circle cx="22" cy="21" r="7" fill="#334155"/>
        <text x="42" y="26" font-family="Inter,Segoe UI,Arial" font-size="13" font-weight="700" fill="#cbd5e1">Control live</text>
      </g>
      <g transform="translate(0 126)">
        <circle cx="22" cy="21" r="7" fill="#334155"/>
        <text x="42" y="26" font-family="Inter,Segoe UI,Arial" font-size="13" font-weight="700" fill="#cbd5e1">Documentos</text>
        <rect x="151" y="12" width="26" height="18" rx="9" fill="#f59e0b"/>
        <text x="160" y="25" font-family="Inter,Segoe UI,Arial" font-size="10" font-weight="900" fill="#fff">3</text>
      </g>
      <g transform="translate(0 174)">
        <circle cx="22" cy="21" r="7" fill="#334155"/>
        <text x="42" y="26" font-family="Inter,Segoe UI,Arial" font-size="13" font-weight="700" fill="#cbd5e1">Informes Excel</text>
      </g>
      <g transform="translate(0 222)">
        <circle cx="22" cy="21" r="7" fill="#334155"/>
        <text x="42" y="26" font-family="Inter,Segoe UI,Arial" font-size="13" font-weight="700" fill="#cbd5e1">Auditoria</text>
      </g>
      <g transform="translate(0 270)">
        <circle cx="22" cy="21" r="7" fill="#334155"/>
        <text x="42" y="26" font-family="Inter,Segoe UI,Arial" font-size="13" font-weight="700" fill="#cbd5e1">Seguridad DB</text>
      </g>
    </g>
    <g transform="translate(24 612)">
      <rect x="0" y="0" width="180" height="72" rx="18" fill="#111827" stroke="#334155"/>
      <text x="18" y="27" font-family="Inter,Segoe UI,Arial" font-size="12" font-weight="800" fill="#fff">Base protegida</text>
      <text x="18" y="48" font-family="Inter,Segoe UI,Arial" font-size="11" font-weight="600" fill="#94a3b8">Auth + reglas Firebase</text>
    </g>

    <g transform="translate(230 0)">
      <rect x="0" y="0" width="780" height="78" rx="0" fill="#ffffff"/>
      <line x1="0" y1="78" x2="780" y2="78" stroke="#e2e8f0"/>
      <text x="30" y="49" class="h1">Dashboard operativo</text>
      <rect x="538" y="24" width="116" height="30" rx="15" fill="#dcfce7"/>
      <circle cx="556" cy="39" r="5" fill="#22c55e"/>
      <text x="568" y="44" font-family="Inter,Segoe UI,Arial" font-size="12" font-weight="800" fill="#15803d">Sincronizado</text>
      <rect x="668" y="24" width="82" height="30" rx="15" fill="#f1f5f9"/>
      <text x="690" y="44" font-family="Inter,Segoe UI,Arial" font-size="12" font-weight="800" fill="#475569">Salir</text>

      <g transform="translate(30 108)">
        <g>
          <rect x="0" y="0" width="166" height="112" rx="20" fill="#f8fafc" stroke="#e2e8f0"/>
          <text x="18" y="31" class="small">Fichados ahora</text>
          <text x="18" y="72" class="num">12/18</text>
          <rect x="18" y="88" width="100" height="8" rx="4" fill="#dbeafe"/>
          <rect x="18" y="88" width="66" height="8" rx="4" fill="#3b82f6"/>
        </g>
        <g transform="translate(186 0)">
          <rect x="0" y="0" width="166" height="112" rx="20" fill="#f8fafc" stroke="#e2e8f0"/>
          <text x="18" y="31" class="small">Docs pendientes</text>
          <text x="18" y="72" class="num">3</text>
          <rect x="100" y="22" width="42" height="42" rx="14" fill="#fff7ed"/>
          <path d="M113 33h16l8 8v18h-24z" fill="#fb923c"/>
        </g>
        <g transform="translate(372 0)">
          <rect x="0" y="0" width="166" height="112" rx="20" fill="#f8fafc" stroke="#e2e8f0"/>
          <text x="18" y="31" class="small">Solicitudes</text>
          <text x="18" y="72" class="num">7</text>
          <rect x="100" y="22" width="42" height="42" rx="14" fill="#eef2ff"/>
          <circle cx="121" cy="43" r="13" fill="#6366f1"/>
        </g>
        <g transform="translate(558 0)">
          <rect x="0" y="0" width="166" height="112" rx="20" fill="#f8fafc" stroke="#e2e8f0"/>
          <text x="18" y="31" class="small">Alertas PWA</text>
          <text x="18" y="72" class="num">OK</text>
          <rect x="100" y="22" width="42" height="42" rx="14" fill="#ecfeff"/>
          <path d="M121 30c-8 0-13 5-13 13v10h26V43c0-8-5-13-13-13z" fill="#06b6d4"/>
        </g>
      </g>

      <g transform="translate(30 252)">
        <rect x="0" y="0" width="454" height="210" rx="24" fill="#ffffff" stroke="#e2e8f0"/>
        <text x="22" y="36" class="h2">Documentos para firmar</text>
        <text x="22" y="59" class="body">Vista previa integrada antes de aplicar la firma guardada.</text>
        <g transform="translate(22 82)">
          <rect x="0" y="0" width="410" height="46" rx="14" fill="#f8fafc"/>
          <rect x="14" y="10" width="28" height="28" rx="8" fill="#eef2ff"/>
          <text x="56" y="20" class="small">Nomina mayo 2026</text>
          <text x="56" y="36" class="tiny">Pendiente de firma</text>
          <rect x="292" y="10" width="48" height="26" rx="13" fill="#e0f2fe"/>
          <text x="306" y="28" font-family="Inter,Segoe UI,Arial" font-size="11" font-weight="800" fill="#0369a1">Ver</text>
          <rect x="348" y="10" width="50" height="26" rx="13" fill="url(#brand)"/>
          <text x="359" y="28" font-family="Inter,Segoe UI,Arial" font-size="11" font-weight="800" fill="#fff">Firmar</text>
        </g>
        <g transform="translate(22 138)">
          <rect x="0" y="0" width="410" height="46" rx="14" fill="#f8fafc"/>
          <rect x="14" y="10" width="28" height="28" rx="8" fill="#ecfdf5"/>
          <text x="56" y="20" class="small">Contrato anexo obra</text>
          <text x="56" y="36" class="tiny">Firmado hoy</text>
          <path d="M326 28c18-22 36 22 66-8" fill="none" stroke="#16a34a" stroke-width="3" stroke-linecap="round"/>
        </g>
      </g>

      <g transform="translate(508 252)">
        <rect x="0" y="0" width="232" height="210" rx="24" fill="#0f172a"/>
        <text x="20" y="36" font-family="Inter,Segoe UI,Arial" font-size="17" font-weight="800" fill="#fff">Notificaciones</text>
        <text x="20" y="59" font-family="Inter,Segoe UI,Arial" font-size="12" font-weight="600" fill="#94a3b8">Toque directo al modulo</text>
        <g transform="translate(20 84)">
          <rect x="0" y="0" width="192" height="42" rx="14" fill="#1e293b"/>
          <circle cx="20" cy="21" r="8" fill="#f59e0b"/>
          <text x="38" y="19" font-family="Inter,Segoe UI,Arial" font-size="11" font-weight="800" fill="#fff">Documento pendiente</text>
          <text x="38" y="33" font-family="Inter,Segoe UI,Arial" font-size="10" font-weight="600" fill="#94a3b8">abre Documentos</text>
        </g>
        <g transform="translate(20 136)">
          <rect x="0" y="0" width="192" height="42" rx="14" fill="#1e293b"/>
          <circle cx="20" cy="21" r="8" fill="#22c55e"/>
          <text x="38" y="19" font-family="Inter,Segoe UI,Arial" font-size="11" font-weight="800" fill="#fff">Jornada aceptada</text>
          <text x="38" y="33" font-family="Inter,Segoe UI,Arial" font-size="10" font-weight="600" fill="#94a3b8">abre Mi Obra</text>
        </g>
      </g>

      <g transform="translate(30 492)">
        <rect x="0" y="0" width="710" height="172" rx="24" fill="#ffffff" stroke="#e2e8f0"/>
        <text x="22" y="36" class="h2">Informes Excel</text>
        <rect x="566" y="18" width="122" height="34" rx="17" fill="#dcfce7"/>
        <text x="588" y="40" font-family="Inter,Segoe UI,Arial" font-size="12" font-weight="900" fill="#15803d">Exportar .xlsx</text>
        <line x1="22" y1="68" x2="688" y2="68" class="line"/>
        <text x="22" y="98" class="tiny">EMPLEADO</text>
        <text x="286" y="98" class="tiny">TOTAL MES</text>
        <text x="430" y="98" class="tiny">DIFERENCIA</text>
        <text x="580" y="98" class="tiny">OBRA</text>
        <text x="22" y="132" class="small">Franklin L. Nunez</text>
        <text x="286" y="132" class="small">156h 20m</text>
        <text x="430" y="132" class="small" fill="#16a34a">+4h 20m</text>
        <text x="580" y="132" class="small">Gecama CCTV</text>
      </g>
    </g>
  </g>

  <!-- Mobile employee PWA -->
  <g transform="translate(1160 178)" filter="url(#shadow)">
    <rect x="0" y="0" width="306" height="660" rx="42" fill="#111827"/>
    <rect x="14" y="14" width="278" height="632" rx="34" fill="#f8fafc"/>
    <rect x="14" y="14" width="278" height="54" rx="34" fill="#f8fafc"/>
    <rect x="113" y="26" width="80" height="22" rx="11" fill="#111827"/>
    <g transform="translate(32 78)">
      <text x="0" y="0" class="tiny">MARTES, 16 JUNIO</text>
      <text x="0" y="30" class="h1">Hola, Ismael</text>
      <rect x="190" y="4" width="50" height="28" rx="14" fill="#eef2ff"/>
      <text x="202" y="23" font-family="Inter,Segoe UI,Arial" font-size="11" font-weight="900" fill="#4f46e5">Panel</text>
    </g>
    <g transform="translate(32 134)">
      <rect x="0" y="0" width="242" height="214" rx="28" fill="url(#dark)"/>
      <text x="24" y="34" font-family="Inter,Segoe UI,Arial" font-size="12" font-weight="800" fill="#93c5fd">Jornada activa</text>
      <text x="24" y="82" font-family="Inter,Segoe UI,Arial" font-size="42" font-weight="900" fill="#fff">04:32</text>
      <text x="24" y="108" font-family="Inter,Segoe UI,Arial" font-size="12" font-weight="600" fill="#94a3b8">Gecama CCTV</text>
      <circle cx="121" cy="156" r="38" fill="url(#brand)"/>
      <rect x="107" y="144" width="10" height="26" rx="3" fill="#fff"/>
      <rect x="126" y="144" width="10" height="26" rx="3" fill="#fff"/>
    </g>
    <g transform="translate(32 366)">
      <rect x="0" y="0" width="112" height="66" rx="18" fill="#fff" stroke="#e2e8f0"/>
      <text x="16" y="24" class="tiny">ENTRADA</text>
      <text x="16" y="48" class="h2">08:03</text>
      <rect x="130" y="0" width="112" height="66" rx="18" fill="#fff" stroke="#e2e8f0"/>
      <text x="146" y="24" class="tiny">DESCANSO</text>
      <text x="146" y="48" class="h2">00:15</text>
    </g>
    <g transform="translate(32 452)">
      <rect x="0" y="0" width="242" height="92" rx="22" fill="#fff" stroke="#e2e8f0"/>
      <text x="18" y="28" class="h2">Documento pendiente</text>
      <text x="18" y="50" class="body">Nomina mayo lista para firma.</text>
      <rect x="18" y="62" width="78" height="24" rx="12" fill="#e0f2fe"/>
      <text x="35" y="79" font-family="Inter,Segoe UI,Arial" font-size="11" font-weight="900" fill="#0369a1">Abrir</text>
      <rect x="104" y="62" width="78" height="24" rx="12" fill="url(#brand)"/>
      <text x="123" y="79" font-family="Inter,Segoe UI,Arial" font-size="11" font-weight="900" fill="#fff">Firmar</text>
    </g>
    <g transform="translate(14 574)">
      <rect x="0" y="0" width="278" height="72" rx="0" fill="#ffffff"/>
      <line x1="0" y1="0" x2="278" y2="0" stroke="#e2e8f0"/>
      <circle cx="42" cy="28" r="8" fill="#4f46e5"/>
      <circle cx="103" cy="28" r="8" fill="#cbd5e1"/>
      <circle cx="164" cy="28" r="8" fill="#cbd5e1"/>
      <circle cx="225" cy="28" r="8" fill="#cbd5e1"/>
      <text x="24" y="55" class="tiny">Inicio</text>
      <text x="88" y="55" class="tiny">Doc</text>
      <text x="144" y="55" class="tiny">Vac</text>
      <text x="205" y="55" class="tiny">Perfil</text>
    </g>
  </g>

  <!-- Mobile encargado PWA -->
  <g transform="translate(1230 844)" filter="url(#softShadow)">
    <rect x="0" y="0" width="236" height="174" rx="28" fill="#ffffff" stroke="#e2e8f0"/>
    <text x="22" y="38" class="h2">Mi Obra</text>
    <text x="22" y="61" class="body">Vista restringida para encargado.</text>
    <g transform="translate(22 84)">
      <rect x="0" y="0" width="192" height="36" rx="14" fill="#f8fafc"/>
      <circle cx="18" cy="18" r="7" fill="#22c55e"/>
      <text x="34" y="23" class="small">Franklin trabajando</text>
    </g>
    <g transform="translate(22 128)">
      <rect x="0" y="0" width="78" height="28" rx="14" fill="#dcfce7"/>
      <text x="18" y="19" font-family="Inter,Segoe UI,Arial" font-size="11" font-weight="900" fill="#15803d">Aceptar</text>
      <rect x="88" y="0" width="88" height="28" rx="14" fill="#f1f5f9"/>
      <text x="107" y="19" font-family="Inter,Segoe UI,Arial" font-size="11" font-weight="900" fill="#475569">Modificar</text>
    </g>
  </g>

  <g transform="translate(86 950)">
    <text x="0" y="0" class="label">PROPUESTA DE MEJORA</text>
    <text x="0" y="34" class="sub">Mas limpio, mas seguro, con documentos firmables dentro de la app, notificaciones con destino, Excel real y PWA adaptada a iOS 26.</text>
  </g>
</svg>
